<?xml version="1.0" standalone="no"?>
<!DOCTYPE svg PUBLIC "-//W3C//DTD SVG 20010904//EN"
 "http://www.w3.org/TR/2001/REC-SVG-20010904/DTD/svg10.dtd">
<svg version="1.0" xmlns="http://www.w3.org/2000/svg"
 width="1000.000000pt" height="1000.000000pt" viewBox="0 0 1000.000000 1000.000000"
 preserveAspectRatio="xMidYMid meet">
<metadata>
Created by potrace 1.14, written by Peter Selinger 2001-2017
</metadata>
<g transform="translate(0.000000,1000.000000) scale(0.100000,-0.100000)"
fill="#000000" stroke="none">
<path d="M3806 7043 c-6 -6 -199 -14 -406 -18 -218 -3 -551 -13 -715 -21 -38
-1 -128 -5 -200 -8 -71 -3 -168 -8 -215 -11 -168 -9 -387 -18 -487 -19 -57 0
-103 -3 -103 -6 0 -3 -28 -6 -63 -6 -165 -3 -227 -7 -227 -15 0 -20 -31 -35
-69 -33 -29 1 -41 -2 -42 -12 -1 -8 -2 -19 -3 -26 -1 -13 -486 -14 -706 -2
-148 9 -193 9 -258 1 -87 -11 -90 -18 -28 -79 77 -76 110 -102 166 -131 30
-15 89 -45 130 -68 l75 -40 17 21 c10 12 18 30 18 40 0 32 23 38 145 36 115
-1 151 -8 140 -26 -3 -4 10 -15 29 -24 18 -8 38 -22 45 -29 9 -12 -7 -14 -97
-13 -97 1 -110 3 -132 24 -22 20 -26 21 -36 7 -9 -12 -7 -25 10 -59 l21 -43
80 -1 c70 -1 81 -4 97 -24 10 -13 18 -28 18 -35 0 -6 6 -13 13 -16 6 -3 -26
-5 -73 -4 -78 0 -114 -3 -222 -19 -21 -2 -50 -11 -65 -19 -15 -8 -33 -15 -39
-15 -7 0 -29 -15 -49 -33 -44 -39 -41 -60 6 -47 81 23 168 23 252 -1 45 -13
97 -33 114 -45 l33 -22 -63 0 c-34 0 -69 -2 -77 -4 -16 -3 -30 -28 -23 -40 8
-14 94 -47 152 -59 44 -8 68 -20 94 -45 38 -37 39 -37 160 -18 15 2 42 6 60 9
20 3 -9 -15 -78 -49 -120 -57 -145 -82 -145 -140 0 -42 9 -49 41 -32 14 7 45
20 70 28 71 26 262 95 291 106 24 10 28 8 50 -24 20 -30 27 -34 53 -29 57 10
73 13 111 24 21 6 39 9 39 8 1 -1 14 -23 29 -49 25 -43 31 -47 54 -42 15 4 33
11 40 17 6 5 12 7 12 4 0 -3 25 3 57 14 69 23 66 24 52 -3 -20 -38 -42 -54
-104 -77 -33 -13 -73 -29 -90 -36 -16 -7 -90 -35 -162 -61 -73 -26 -133 -50
-133 -54 0 -29 155 -32 223 -5 30 13 18 -8 -43 -73 -94 -99 -82 -117 47 -72
152 53 310 87 443 95 36 3 76 7 90 10 34 7 129 43 175 66 11 6 -2 -10 -30 -35
-75 -68 -82 -74 -104 -86 -12 -6 -50 -32 -85 -58 -35 -26 -95 -69 -134 -97
-39 -27 -71 -57 -72 -66 0 -9 12 -32 28 -51 25 -32 29 -34 54 -23 l28 11 -22
22 c-12 12 -20 23 -17 25 2 2 47 34 99 70 52 37 102 72 111 78 41 29 228 150
314 204 53 33 122 80 152 104 43 35 59 42 72 34 22 -13 37 -10 107 23 32 15
64 28 69 30 6 1 41 16 78 34 67 31 70 31 102 16 19 -9 36 -20 39 -25 3 -4 -22
-34 -54 -66 l-59 -59 -82 -1 c-46 -1 -98 1 -116 6 -30 6 -43 1 -126 -53 -136
-89 -231 -152 -237 -158 -7 -7 -41 -28 -67 -41 -22 -12 -88 -143 -79 -158 3
-4 6 -28 7 -54 2 -26 7 -47 12 -47 10 0 45 20 132 75 109 69 347 215 351 215
4 0 83 59 121 90 11 9 44 7 64 -5 6 -4 -5 -21 -26 -40 -19 -19 -35 -42 -35
-53 0 -12 -13 -27 -36 -38 -20 -11 -44 -23 -55 -29 -10 -5 -19 -15 -19 -21 0
-24 28 -21 93 11 37 18 67 30 67 28 0 -3 7 0 15 7 29 24 25 4 -7 -41 -18 -24
-37 -49 -43 -55 -5 -6 -21 -27 -35 -47 -14 -20 -28 -37 -32 -37 -5 0 -8 -7 -8
-15 0 -8 -4 -15 -10 -15 -5 0 -10 -7 -10 -15 0 -8 -4 -15 -10 -15 -5 0 -10 -7
-10 -16 0 -13 6 -12 38 7 20 13 39 27 40 31 2 4 10 8 18 8 8 0 14 5 14 10 0 6
5 10 10 10 6 0 10 -15 10 -34 0 -59 22 -62 63 -7 20 26 47 59 59 73 35 38 68
86 68 98 0 5 4 10 8 10 4 0 15 12 24 28 19 32 71 84 199 202 50 47 115 106
143 132 28 26 55 48 61 48 8 0 -14 -26 -90 -104 -11 -12 -58 -64 -105 -116
-47 -52 -94 -104 -105 -116 -11 -11 -47 -51 -80 -89 -33 -37 -66 -73 -73 -81
-6 -7 -9 -15 -4 -18 14 -9 145 33 157 51 7 10 26 32 41 49 16 17 54 59 84 94
91 105 121 132 105 93 -7 -18 -9 -29 -21 -88 -3 -18 -19 -40 -37 -54 -18 -13
-33 -34 -33 -47 -2 -22 -2 -22 46 7 26 16 50 29 53 29 3 0 4 -24 1 -54 -3 -30
-1 -56 3 -59 4 -2 53 24 108 59 98 62 117 72 113 57 0 -5 12 -37 29 -73 27
-59 28 -65 12 -68 -20 -4 -20 -8 11 -143 9 -44 26 -86 37 -98 19 -21 24 -22
63 -10 22 7 45 20 49 28 11 21 8 61 -8 89 -11 20 -9 25 11 42 51 42 65 45 90
17 38 -41 72 -43 107 -5 17 18 31 39 31 46 0 20 -31 62 -56 75 l-22 12 24 52
c23 48 27 52 46 42 12 -6 38 -8 59 -5 43 7 49 -1 19 -27 -26 -22 -25 -49 3
-75 21 -20 24 -20 55 -5 17 8 32 19 32 24 0 14 16 11 40 -9 18 -15 20 -21 11
-45 -9 -23 -7 -31 8 -46 11 -11 17 -22 13 -25 -3 -3 5 -28 18 -56 l23 -50 -24
-21 c-13 -11 -36 -28 -51 -37 -16 -9 -28 -23 -28 -31 0 -8 3 -12 6 -8 3 3 19
1 36 -5 l30 -11 -28 -23 c-16 -13 -32 -23 -36 -24 -4 0 -24 -16 -45 -35 l-38
-35 38 0 c20 0 37 -4 37 -8 0 -5 -14 -45 -30 -91 -26 -71 -28 -84 -16 -96 12
-12 8 -21 -32 -64 -32 -35 -50 -47 -58 -40 -12 10 -49 -34 -49 -60 0 -8 -9
-19 -20 -25 -41 -23 -62 -62 -45 -83 2 -2 3 -6 4 -10 1 -5 8 -25 15 -45 11
-32 10 -43 -3 -69 -9 -18 -16 -37 -16 -44 0 -11 -18 -32 -117 -139 -45 -48
-47 -49 -77 -37 -73 30 -140 47 -216 54 -84 9 -128 49 -165 150 -16 42 -35 63
-35 37 0 -5 -4 -10 -10 -10 -5 0 -23 -12 -39 -27 -16 -16 -40 -38 -54 -50 -40
-37 -113 -152 -162 -258 -26 -55 -46 -100 -44 -100 1 0 -2 -9 -8 -20 -8 -15
-8 -23 2 -32 10 -9 24 5 65 68 29 43 56 79 61 79 5 0 9 6 9 13 0 12 69 64 79
60 3 -2 6 -49 7 -105 0 -57 5 -119 10 -138 4 -19 9 -38 10 -42 1 -5 2 -17 3
-28 0 -11 4 -20 9 -20 23 1 31 24 37 105 4 50 8 99 10 110 4 33 34 95 48 96
78 8 110 3 135 -18 18 -15 28 -34 29 -55 1 -18 3 -42 5 -53 2 -15 -14 -31 -67
-66 -38 -26 -73 -45 -77 -42 -5 2 -8 0 -8 -5 0 -5 -11 -14 -25 -20 -37 -17
-32 -36 8 -27 17 3 46 9 62 11 17 3 55 17 85 30 104 48 139 63 160 69 33 8 90
48 130 92 47 51 52 54 82 47 18 -4 40 -9 48 -10 67 -12 87 -16 98 -19 8 -3 12
1 10 12 -3 16 -93 52 -130 53 -29 0 -21 14 42 71 66 60 118 79 225 83 68 3
110 24 119 62 4 14 14 24 25 24 24 0 53 33 46 52 -5 14 36 68 50 68 12 0 3
-50 -10 -64 -8 -8 -15 -17 -15 -19 0 -3 -25 -49 -55 -102 -30 -54 -55 -101
-55 -106 0 -5 -4 -9 -9 -9 -12 0 -28 -49 -24 -75 1 -11 5 -37 8 -58 5 -34 -4
-54 -101 -220 -59 -100 -114 -195 -123 -210 -9 -16 -20 -36 -26 -46 -5 -9 -57
-98 -115 -196 -57 -99 -107 -182 -110 -185 -3 -3 -13 -21 -24 -40 -10 -19 -27
-50 -37 -68 -38 -65 -31 -65 169 4 103 36 194 73 203 82 13 14 238 364 263
409 3 6 -5 32 -18 57 -20 38 -24 55 -19 99 3 28 9 57 13 62 8 11 74 132 97
177 14 28 39 43 47 29 3 -5 -6 -36 -21 -70 -26 -60 -26 -62 -10 -97 29 -59 22
-131 -19 -210 -202 -388 -222 -430 -219 -464 8 -101 24 -190 34 -190 3 0 27
39 51 88 25 48 57 109 72 135 16 26 28 54 28 62 0 7 3 15 8 17 4 2 29 46 56
98 27 52 74 145 106 205 32 61 77 147 100 193 24 45 47 82 52 82 10 0 7 -40
-7 -95 -8 -29 -65 -118 -65 -100 0 4 -8 1 -19 -9 -18 -16 -18 -19 0 -93 10
-42 20 -88 23 -102 2 -14 14 -71 26 -126 12 -55 22 -104 22 -110 2 -32 -36
-143 -62 -180 -16 -24 -30 -46 -30 -49 0 -13 -90 -90 -137 -117 -37 -21 -51
-35 -46 -44 5 -7 85 -93 180 -190 l172 -177 181 184 c99 101 179 187 177 192
-2 5 -22 19 -45 31 -99 53 -206 188 -218 275 -2 14 -7 36 -12 49 -5 15 -4 42
4 72 7 27 15 61 18 76 6 36 24 121 31 153 4 14 8 36 10 50 2 14 4 25 5 25 1 0
3 10 6 22 2 12 5 26 6 30 2 4 -17 28 -42 53 -35 35 -48 57 -58 98 -14 62 -15
82 -4 82 8 0 30 -40 157 -285 42 -82 82 -156 87 -162 6 -7 7 -13 3 -13 -4 0
-2 -7 5 -16 8 -8 44 -74 82 -147 37 -73 82 -160 100 -194 18 -35 36 -63 40
-63 7 0 9 11 23 100 19 120 18 122 -79 305 -183 346 -168 311 -163 378 2 34
10 76 17 93 11 26 11 35 -3 64 -10 18 -17 39 -17 46 0 7 -5 14 -12 16 -6 2 -9
12 -5 21 11 30 31 8 94 -103 75 -134 85 -185 47 -257 l-25 -46 37 -61 c21 -34
42 -64 48 -68 7 -5 7 -8 1 -8 -6 0 -6 -3 0 -8 13 -9 155 -230 155 -241 0 -24
64 -57 206 -107 87 -30 166 -57 174 -59 59 -13 60 -21 -19 115 -18 30 -36 62
-41 70 -12 19 -96 163 -123 210 -63 112 -101 175 -109 178 -4 2 -8 12 -8 22 0
10 -3 20 -8 22 -9 4 -132 217 -132 229 0 5 -4 9 -10 9 -5 0 -10 4 -10 10 0 5
-14 32 -31 59 -27 44 -29 56 -24 102 3 29 8 56 11 61 3 5 -3 23 -14 41 -11 17
-29 48 -40 67 -10 19 -42 75 -71 124 -45 78 -62 126 -46 126 15 0 54 -50 50
-63 -8 -18 32 -67 49 -61 8 3 18 -7 25 -23 17 -41 47 -56 116 -59 79 -4 138
-17 172 -39 28 -18 113 -99 113 -108 0 -2 -34 -12 -75 -22 -46 -10 -75 -22
-75 -30 0 -18 20 -24 46 -14 12 4 42 10 65 14 24 3 51 8 60 11 11 3 40 -18 80
-59 50 -49 79 -68 129 -86 36 -13 90 -36 121 -52 31 -15 67 -30 80 -33 13 -2
35 -7 49 -10 60 -14 81 -15 77 -3 -2 7 -13 17 -24 22 -12 6 -28 17 -37 24 -9
7 -16 10 -16 7 0 -4 -6 -2 -12 4 -7 6 -35 24 -61 40 l-48 30 3 53 c3 72 30 99
101 102 28 1 58 0 65 -2 30 -12 49 -88 57 -229 2 -38 4 -71 4 -74 1 -3 10 -6
20 -7 16 -1 21 10 31 64 7 36 13 110 14 164 0 54 4 99 7 99 12 0 147 -143 170
-180 33 -53 53 -61 46 -17 -11 68 -164 356 -201 379 -6 4 -31 25 -56 48 -57
53 -79 65 -84 48 -15 -50 -39 -108 -46 -108 -4 0 -10 -9 -13 -19 -6 -24 -60
-52 -106 -56 -59 -5 -177 -32 -210 -49 -37 -20 -58 -20 -68 -2 -4 8 -38 46
-75 85 -37 39 -64 71 -61 71 3 0 1 6 -5 13 -26 32 -31 87 -12 141 14 43 16 58
7 76 -7 13 -15 21 -18 19 -10 -6 -49 32 -43 42 9 15 -28 60 -46 57 -24 -4
-109 100 -91 111 11 7 9 19 -7 61 -3 8 -6 17 -6 20 -2 11 -28 76 -37 93 -8 15
-4 17 31 17 22 0 40 5 40 10 0 6 -4 10 -8 10 -5 0 -20 9 -33 20 -26 21 -31 25
-72 57 l-28 21 36 12 c19 6 35 16 35 21 0 5 -17 17 -38 28 -63 32 -68 44 -43
94 13 24 19 50 15 60 -4 12 -1 17 11 17 15 0 17 7 13 45 -5 39 -3 46 19 61 23
15 26 14 46 -4 35 -31 53 -33 76 -8 24 26 21 70 -5 80 -23 9 -16 25 9 20 32
-8 38 -8 72 0 29 6 32 4 53 -39 l22 -46 -28 -16 c-26 -15 -52 -54 -52 -77 0
-6 14 -26 30 -44 28 -32 31 -33 65 -22 20 7 41 20 48 31 15 24 19 24 64 -7 49
-33 48 -31 33 -49 -16 -19 -21 -92 -6 -104 6 -4 28 -14 50 -21 37 -12 39 -11
62 15 13 16 25 36 25 47 2 26 3 32 12 46 5 6 6 12 4 12 -2 0 2 26 9 58 12 51
12 58 -3 69 -15 11 -14 18 12 78 15 36 30 67 34 69 3 2 49 -22 101 -55 52 -32
101 -59 108 -59 9 0 11 16 8 59 l-4 59 49 -31 c27 -16 52 -28 54 -25 8 8 -16
58 -27 58 -20 0 -36 29 -51 93 -8 37 -12 67 -9 67 4 0 17 -13 29 -28 12 -15
39 -46 60 -68 21 -23 56 -63 78 -89 62 -74 82 -89 147 -107 55 -16 93 -15 72
1 -5 3 -38 40 -74 81 -36 41 -74 84 -85 95 -11 11 -58 63 -105 115 -47 52
-111 122 -142 155 -86 91 -66 84 42 -15 256 -235 284 -263 313 -310 11 -19 24
-37 27 -40 3 -3 17 -21 30 -40 12 -19 28 -39 34 -45 6 -5 27 -30 46 -55 42
-55 60 -74 64 -69 2 2 8 23 13 46 l8 43 59 -39 c33 -22 63 -38 67 -35 5 2 -34
60 -86 127 -52 67 -95 125 -95 130 0 14 26 7 95 -27 51 -26 73 -32 82 -24 20
16 17 21 -42 52 -30 15 -54 31 -53 35 2 21 -6 35 -39 66 l-36 34 27 11 c30 11
53 3 90 -32 12 -10 43 -33 71 -51 27 -17 52 -35 53 -39 2 -5 9 -8 15 -8 7 0
43 -20 80 -45 38 -25 71 -45 73 -45 3 0 123 -74 213 -132 25 -15 50 -28 56
-28 7 0 12 22 14 57 1 31 3 59 4 62 1 3 -4 16 -11 29 -7 12 -10 22 -6 22 4 0
-1 9 -12 21 -10 12 -17 22 -15 23 17 5 -38 48 -204 157 -210 139 -230 151
-238 143 -3 -4 -47 -8 -98 -9 -109 -4 -125 2 -194 76 l-49 53 42 19 c42 18 44
18 85 -2 40 -19 63 -29 190 -85 38 -17 65 -23 75 -18 10 5 22 8 27 8 8 -1 58
-35 100 -69 5 -5 85 -56 177 -115 182 -116 396 -261 434 -295 24 -21 24 -21 5
-41 -20 -21 -20 -21 4 -33 22 -10 28 -7 55 23 16 19 30 42 30 50 0 18 -38 53
-57 54 -7 0 -13 4 -13 8 0 7 -201 154 -268 197 -9 6 -27 22 -42 36 -15 14 -35
31 -46 37 -18 11 -18 11 4 12 12 0 22 -4 22 -10 0 -5 7 -10 16 -10 8 0 34 -9
57 -19 45 -21 80 -27 192 -36 39 -4 104 -13 145 -22 41 -8 86 -17 100 -19 14
-3 34 -8 45 -11 11 -4 25 -8 30 -9 6 -1 50 -16 98 -33 48 -18 92 -29 97 -26
16 10 11 33 -12 58 -13 13 -43 44 -67 70 -24 25 -38 44 -30 43 8 -2 30 -6 49
-10 89 -18 190 -10 190 14 0 4 -60 29 -132 55 -73 26 -137 50 -143 54 -5 3
-12 6 -15 6 -13 2 -85 29 -108 41 -15 8 -32 14 -37 14 -11 0 -33 24 -53 58
-16 28 -3 29 56 2 23 -10 42 -17 42 -14 0 2 15 -2 33 -9 49 -20 57 -16 84 34
l25 46 42 -9 c22 -4 55 -11 71 -14 17 -3 38 -10 48 -15 9 -5 17 -6 17 -2 0 11
51 68 59 66 3 -1 65 -23 136 -48 72 -26 141 -50 155 -54 14 -5 45 -18 70 -30
24 -11 47 -21 50 -21 4 0 7 18 8 41 3 56 -23 88 -100 124 -34 17 -66 34 -69
38 -3 5 -8 8 -10 7 -7 -3 -59 19 -59 25 0 6 30 2 90 -10 90 -18 107 -16 146
19 28 25 55 38 94 45 70 14 67 13 118 39 37 20 41 25 32 42 -11 21 -30 24
-120 21 -34 -1 -41 1 -30 9 35 24 90 50 120 55 18 3 40 10 49 15 19 9 116 7
204 -5 46 -6 57 -5 57 6 -1 26 -114 90 -185 105 -26 6 -186 17 -251 18 l-52 0
17 26 c32 51 53 62 89 49 15 -6 21 -5 17 1 -4 6 2 7 17 1 13 -4 32 -5 43 -1
11 4 23 6 26 4 3 -2 15 19 26 46 18 42 19 51 7 61 -11 9 -18 6 -33 -12 -18
-23 -26 -24 -136 -25 -104 0 -115 1 -99 14 11 8 31 18 47 24 15 5 27 14 27 18
0 29 31 36 150 36 133 -1 125 2 152 -63 8 -22 18 -31 28 -28 9 3 73 36 144 74
96 52 146 86 197 136 38 36 69 70 69 75 0 30 -102 38 -340 26 -112 -5 -622
-11 -683 -7 -10 1 -15 6 -12 11 13 22 -16 39 -60 36 -38 -2 -44 0 -47 18 -2
16 -11 21 -33 22 -16 1 -102 5 -190 8 -88 4 -189 9 -225 11 -36 2 -132 6 -215
10 -82 3 -184 8 -225 10 -41 3 -131 7 -200 10 -69 3 -168 7 -220 10 -205 9
-427 16 -695 21 -154 3 -298 7 -320 8 -22 2 -82 7 -133 11 -104 8 -104 8 -165
-68 -27 -35 -30 -46 -28 -98 2 -59 2 -59 -27 -59 -45 0 -64 -30 -64 -96 0 -55
1 -58 50 -105 70 -66 83 -90 87 -152 2 -46 0 -54 -14 -50 -23 6 -82 -104 -62
-116 11 -7 9 -12 -10 -21 -13 -7 -26 -17 -29 -21 -3 -4 -19 -11 -35 -14 -17
-3 -37 -7 -45 -9 -8 -2 -19 0 -25 4 -14 10 -68 24 -80 20 -5 -1 -16 -3 -22 -3
-7 0 -13 -4 -13 -9 0 -4 -7 -8 -15 -8 -8 0 -25 -5 -38 -11 -22 -10 -24 -15
-17 -45 8 -34 8 -34 -43 -49 -28 -8 -51 -15 -53 -15 -1 0 -5 19 -8 43 -4 23
-7 42 -7 42 0 0 -6 23 -13 50 -13 53 -9 51 -86 46 -12 -1 -15 -17 -14 -81 0
-44 -3 -80 -6 -80 -3 0 -11 26 -19 58 -7 31 -18 63 -23 70 -6 6 -8 12 -5 12 3
0 -3 25 -13 55 l-19 55 25 17 c72 51 70 38 21 136 -49 97 -49 98 26 112 20 4
37 12 37 19 -1 6 -60 70 -133 143 l-132 132 -115 -34 c-63 -18 -118 -31 -123
-28 -10 6 -67 -17 -67 -27 0 -8 -18 -26 -92 -94 -16 -14 -28 -30 -28 -35 0
-14 -28 -28 -73 -35 -47 -7 -66 -18 -135 -69 -54 -41 -57 -49 -38 -112 1 -5 6
-27 11 -48 l8 -39 22 24 c12 13 28 34 34 46 17 32 27 27 52 -23 21 -42 25 -45
61 -45 25 0 38 -5 38 -13 0 -14 -78 -278 -83 -284 -2 -2 -3 33 -2 78 1 88 -5
98 -58 94 -34 -2 -37 -6 -43 -47 -3 -18 -7 -40 -10 -48 -3 -8 -8 -31 -10 -50
-3 -18 -6 -35 -7 -36 -1 -1 -24 3 -50 9 -47 10 -48 11 -45 48 1 21 0 40 -3 42
-2 1 -31 12 -64 23 -57 20 -62 20 -100 4 -32 -13 -48 -15 -80 -7 -22 6 -46 17
-53 24 -7 7 -18 13 -23 13 -12 0 -12 27 1 32 14 4 -57 109 -72 105 -15 -3 -18
64 -3 105 10 31 98 128 115 128 4 0 8 15 9 33 0 17 2 45 4 60 4 26 -24 78 -41
76 -4 -1 -17 -1 -30 0 -20 1 -23 6 -22 34 5 79 0 93 -46 145 l-47 53 -64 -3
c-36 -2 -66 -4 -67 -5z m19 -382 c21 -3 45 -29 40 -43 -5 -12 -14 -13 -48 -6
-23 4 -55 11 -71 14 -35 7 -62 30 -43 37 10 4 87 2 122 -2z m2474 -13 c-5 -10
-17 -18 -27 -19 -9 0 -24 -2 -32 -4 -94 -24 -110 -24 -110 0 0 22 57 41 119
41 53 -1 58 -3 50 -18z m-2469 -257 c0 -17 -68 -75 -125 -107 -115 -63 -173
-82 -182 -58 -2 6 39 27 94 48 95 36 99 38 116 81 18 43 30 52 75 54 15 1 22
-5 22 -18z m2388 13 c25 -5 34 -15 47 -49 14 -36 24 -45 68 -63 29 -12 55 -22
58 -22 4 0 24 -8 45 -17 22 -9 43 -16 48 -14 5 1 3 -5 -4 -14 -18 -21 -59 -12
-133 31 -32 19 -61 34 -65 34 -4 0 -19 11 -34 25 -15 14 -31 25 -35 25 -13 0
-43 39 -43 55 0 17 4 18 48 9z m-2282 -236 c-9 -13 -19 -30 -23 -38 -4 -8 -14
-22 -23 -30 -9 -8 -36 -37 -58 -63 -23 -27 -42 -44 -42 -39 0 5 9 17 20 27 15
14 20 31 20 70 l0 51 58 21 c31 12 59 22 61 22 2 1 -4 -9 -13 -21z m2189 -10
c5 -4 17 -8 27 -8 15 0 18 -9 18 -54 0 -44 4 -58 25 -77 13 -13 25 -28 25 -33
0 -5 -12 4 -26 20 -14 16 -41 45 -59 64 -33 36 -75 99 -75 112 0 8 48 -10 65
-24z m-1987 -40 l34 -13 -5 -87 c-2 -49 -1 -88 2 -89 3 0 15 -3 26 -5 22 -6
62 -12 86 -13 9 -1 19 -12 21 -25 4 -21 2 -23 -24 -19 -28 4 -154 -49 -170
-72 -4 -5 -8 -6 -8 -1 0 5 -7 3 -16 -5 -13 -11 -14 -9 -8 17 4 16 13 38 21 50
11 17 11 29 -2 72 -13 42 -15 122 -6 195 1 10 9 9 49 -5z m1777 -30 c0 -24 2
-56 5 -73 3 -17 -2 -53 -12 -83 -15 -46 -16 -57 -4 -80 37 -74 34 -76 -58 -28
-65 34 -94 44 -121 41 -29 -2 -35 0 -31 12 3 8 6 18 6 23 0 8 49 18 106 22
l32 2 -5 92 -5 92 28 10 c53 19 60 16 59 -30z m-1495 -94 c30 -6 36 -12 44
-41 6 -18 1 -25 -23 -38 -29 -14 -31 -14 -43 5 -7 11 -20 20 -30 20 -23 0 -27
10 -21 43 5 24 9 28 27 22 11 -3 32 -8 46 -11z m1234 -6 c9 -34 8 -36 -13 -43
-10 -3 -29 -14 -41 -25 -20 -18 -24 -18 -46 -3 -18 11 -23 21 -18 37 9 29 15
34 48 40 16 3 31 8 34 11 12 12 30 4 36 -17z m-1888 -26 c-17 -16 -18 -16 -5
5 7 12 15 20 18 17 3 -2 -3 -12 -13 -22z m570 -123 c3 -6 2 -15 -4 -21 -6 -6
-11 -2 -15 11 -5 22 7 29 19 10z m1344 -10 c-7 -11 -14 -18 -17 -15 -8 8 5 36
17 36 7 0 7 -6 0 -21z m275 -97 c-8 -8 -25 10 -19 20 4 6 9 5 15 -3 4 -7 6
-15 4 -17z m-1890 8 c-3 -5 -11 -10 -16 -10 -6 0 -7 5 -4 10 3 6 11 10 16 10
6 0 7 -4 4 -10z m205 -60 c26 -14 21 -60 -8 -71 -12 -5 -22 -5 -23 -1 -4 25
-5 68 -1 75 4 9 10 9 32 -3z m1496 -27 c-3 -32 -7 -38 -28 -41 -24 -3 -26 0
-26 32 0 28 4 36 22 39 11 2 24 5 27 6 4 0 6 -16 5 -36z m-1680 -29 c1 -41
-11 -112 -21 -122 -5 -5 -55 21 -55 30 0 4 -5 8 -11 8 -6 0 -22 9 -35 19 -19
15 -21 20 -9 25 8 3 15 12 15 21 0 8 4 15 9 15 5 0 12 8 16 19 5 17 58 42 80
37 6 -2 10 -25 11 -52z m1890 40 c13 -3 24 -10 24 -14 0 -5 6 -15 13 -22 15
-17 39 -59 35 -62 -47 -32 -110 -68 -112 -65 -11 13 -26 78 -26 110 0 50 9 71
27 65 8 -4 26 -9 39 -12z m-2033 -156 c18 -13 34 -25 37 -28 3 -3 17 -11 33
-19 l27 -15 -27 -30 c-37 -39 -66 -65 -75 -66 -13 0 -68 118 -68 144 0 22 10
33 33 35 4 1 22 -9 40 -21z m2183 7 c13 -13 11 -22 -15 -80 -17 -37 -31 -71
-31 -76 0 -13 -7 -11 -38 8 -30 19 -72 63 -72 76 0 8 120 87 133 87 5 0 15 -7
23 -15z m-2157 -1502 c-27 -33 -64 -62 -81 -63 -14 0 -58 48 -58 64 0 3 30 5
66 5 36 -1 68 2 71 5 14 13 15 5 2 -11z m2201 0 c0 -15 -44 -63 -58 -63 -15 0
-82 54 -82 65 0 2 32 4 70 4 39 0 70 -3 70 -6z"/>
</g>
</svg>
